# xmcd
#
# Track frame offsets:
#	182
#	9487
#	22752
#	45897
#	61280
#	70410
#	82832
#	100045
#	113430
#	125392
#	138107
#	151290
#	162837
#	175245
#	187412
#	197465
#	211232
#	222560
#	234867
#	250872
#	265152
#	277995
#	290312
#	306600
#
# Disc length: 4275 seconds
#
# Revision: 1
# Processed by: cddbd v1.4PL0 Copyright (c) Steve Scherf et al.
# Submitted via: audiograbber 1.80.04
#
DISCID=4010b118
DTITLE=Mac Wiseman - Mac Wiseman 24 Greatest Hits
DYEAR=1900
DGENRE=Country
TTITLE0=Jimmy Brown
TTITLE1=The Prisoner Song
TTITLE2=Barbara Allen
TTITLE3=Bringing Mary Home
TTITLE4=Poison Love
TTITLE5=Going Like Wildfire
TTITLE6=Don't Make Go To Bed And I'll Be Good
TTITLE7=Tis' Sweet To Be Remembered
TTITLE8=I Still Write Your Name In The Sand
TTITLE9=Wabash Cannonball
TTITLE10=I Wonder How The Old Folks Are At Home
TTITLE11=Love Letters In The Sand
TTITLE12=I Saw Your Face In The Moon
TTITLE13=The Waltz You Saved For Me
TTITLE14=She's Got Leaving On Her Mind
TTITLE15=Rocky Top
TTITLE16=My Baby's Gone
TTITLE17=I heard My Mother Call My Name In Prayer
TTITLE18=Where Is My Boy Tonight
TTITLE19=Mama Put My Little Shoes Away
TTITLE20=Your Best Friend And Me
TTITLE21=Sweeter Than The Flowers
TTITLE22=18 Wheels A Humming Home Sweet Home
TTITLE23=I haven't Seen Mama In Years
EXTD=
EXTT0=
EXTT1=
EXTT2=
EXTT3=
EXTT4=
EXTT5=
EXTT6=
EXTT7=
EXTT8=
EXTT9=
EXTT10=
EXTT11=
EXTT12=
EXTT13=
EXTT14=
EXTT15=
EXTT16=
EXTT17=
EXTT18=
EXTT19=
EXTT20=
EXTT21=
EXTT22=
EXTT23=
PLAYORDER=
